<svg width="17" height="18" viewBox="0 0 17 18" fill="none" xmlns="http://www.w3.org/2000/svg">
<path fill-rule="evenodd" clip-rule="evenodd" d="M0.437195 9C0.437195 6.70853 1.3097 4.51091 2.86276 2.8906C4.41583 1.27028 6.52224 0.36 8.7186 0.36C10.915 0.36 13.0214 1.27028 14.5744 2.8906C16.1275 4.51091 17 6.70853 17 9C17 11.2915 16.1275 13.4891 14.5744 15.1094C13.0214 16.7297 10.915 17.64 8.7186 17.64C6.52224 17.64 4.41583 16.7297 2.86276 15.1094C1.3097 13.4891 0.437195 11.2915 0.437195 9ZM8.7186 1.44C7.35401 1.44008 6.01717 1.84215 4.86195 2.59995C3.70673 3.35775 2.78009 4.44047 2.18868 5.72349C1.59726 7.00651 1.36511 8.43769 1.51895 9.85229C1.67279 11.2669 2.20637 12.6074 3.05826 13.7196C3.79324 12.4841 5.41122 11.16 8.7186 11.16C12.026 11.16 13.6429 12.483 14.3789 13.7196C15.2308 12.6074 15.7644 11.2669 15.9183 9.85229C16.0721 8.43769 15.8399 7.00651 15.2485 5.72349C14.6571 4.44047 13.7305 3.35775 12.5753 2.59995C11.42 1.84215 10.0832 1.44008 8.7186 1.44Z" fill="#27445D"/>
<path d="M11.8241 5.75999C11.8241 6.6193 11.4969 7.4434 10.9145 8.05102C10.3321 8.65864 9.54217 8.99999 8.71853 8.99999C7.8949 8.99999 7.10499 8.65864 6.52259 8.05102C5.9402 7.4434 5.61301 6.6193 5.61301 5.75999C5.61301 4.90069 5.9402 4.07659 6.52259 3.46897C7.10499 2.86135 7.8949 2.51999 8.71853 2.51999C9.54217 2.51999 10.3321 2.86135 10.9145 3.46897C11.4969 4.07659 11.8241 4.90069 11.8241 5.75999Z" fill="#27445D"/>
</svg>
